<svg xmlns="http://www.w3.org/2000/svg" width="500" height="500" viewBox="0 0 500 500">
<g>
<path d="M 228.16 412.97 C212.18,408.78 196.31,396.73 189.34,383.50 C181.16,367.96 179.28,350.18 184.21,334.97 C186.08,329.18 200.26,304.32 245.49,227.47 C277.86,172.49 306.83,123.22 309.87,118.00 C318.87,102.57 329.82,93.32 345.55,87.90 C354.76,84.72 374.35,84.44 383.00,87.36 C390.66,89.94 400.81,96.06 407.35,102.03 C426.45,119.49 432.35,150.45 420.91,173.17 C419.34,176.28 397.05,214.53 371.37,258.17 C345.69,301.80 318.12,348.66 310.09,362.30 C293.26,390.91 290.54,394.77 282.72,401.07 C267.24,413.54 247.11,417.93 228.16,412.97 ZM 111.50 211.86 C97.64,210.55 85.31,204.48 74.42,193.58 C61.74,180.90 56.00,166.85 56.00,148.50 C56.00,130.02 61.76,116.00 74.57,103.31 C80.30,97.65 83.81,95.18 91.17,91.65 C102.30,86.30 108.04,85.00 120.30,85.01 C130.32,85.02 136.82,86.40 145.33,90.29 C161.86,97.86 173.15,109.80 179.61,126.53 C183.16,135.70 184.13,153.98 181.60,164.03 C178.68,175.68 173.50,184.65 164.57,193.51 C149.74,208.24 133.31,213.92 111.50,211.86 Z" fill="rgba(255,255,255,1)"/>
</g>
</svg>